PathFileType	4	(X/Y/Z)	/Users/itak/Documents/Research/Walk-IL/dataset/trc/00407_00012.trc
DataRate	CameraRate	NumFrames	NumMarkers	Units	OrigDataRate	OrigDataStartFrame	OrigNumFrames
100.000000	100.000000	4	55	mm	100.000000	80	647
Frame#	Time	RPSI			LPSI			L3			STRN			T10			C7			CLAV			RBAK			LBAK			LSHO			LUPA			LAEL			LAOL			LWTS			LWPS			LFRA			LIFD			LHPS			LHTS			RSHO			RUPA			RAEL			RAOL			RWTS			RWPS			RFRA			RIFD			RHTS			RHPS			RBHD			LFHD			RFHD			LBHD			LHIP			RHIP			RASI			LASI			LKNE			LTHI			LANK			LTIP			LTOE			LMT1			LMT5			LHEE			RKNE			RTHI			RANK			RTIP			RTOE			RMT1			RMT5			RHEE			*53			*54			
		X1	Y1	Z1	X2	Y2	Z2	X3	Y3	Z3	X4	Y4	Z4	X5	Y5	Z5	X6	Y6	Z6	X7	Y7	Z7	X8	Y8	Z8	X9	Y9	Z9	X10	Y10	Z10	X11	Y11	Z11	X12	Y12	Z12	X13	Y13	Z13	X14	Y14	Z14	X15	Y15	Z15	X16	Y16	Z16	X17	Y17	Z17	X18	Y18	Z18	X19	Y19	Z19	X20	Y20	Z20	X21	Y21	Z21	X22	Y22	Z22	X23	Y23	Z23	X24	Y24	Z24	X25	Y25	Z25	X26	Y26	Z26	X27	Y27	Z27	X28	Y28	Z28	X29	Y29	Z29	X30	Y30	Z30	X31	Y31	Z31	X32	Y32	Z32	X33	Y33	Z33	X34	Y34	Z34	X35	Y35	Z35	X36	Y36	Z36	X37	Y37	Z37	X38	Y38	Z38	X39	Y39	Z39	X40	Y40	Z40	X41	Y41	Z41	X42	Y42	Z42	X43	Y43	Z43	X44	Y44	Z44	X45	Y45	Z45	X46	Y46	Z46	X47	Y47	Z47	X48	Y48	Z48	X49	Y49	Z49	X50	Y50	Z50	X51	Y51	Z51	X52	Y52	Z52	X53	Y53	Z53	X54	Y54	Z54	X55	Y55	Z55	

81	0.8	199.2150115966797	973.260498046875	1106.436401367188	212.0716552734375	974.34814453125	1238.422973632812	206.5818634033203	1046.78857421875	1172.047241210938	-39.259765625	1205.46435546875	1189.389892578125	213.7292785644531	1152.705078125	1177.303955078125	175.4893951416016	1400.082397460938	1189.486450195312	16.92848014831543	1323.48388671875	1189.370239257812	210.0677947998047	1256.4912109375	1112.499389648438	192.9477233886719	1358.043334960938	1291.3662109375	108.1376342773438	1375.423095703125	1345.245361328125	128.8400573730469	1259.04931640625	1416.28564453125	107.3605346679688	1061.1806640625	1442.61474609375	161.1659393310547	1039.863525390625	1380.560302734375	17.03785705566406	844.7079467773438	1404.146728515625	75.14623260498047	831.8922119140625	1461.3349609375	92.66579437255859	957.3453369140625	1451.57421875	39.26620864868164	661.2828369140625	1401.41552734375	68.5567626953125	746.6860961914062	1452.84326171875	10.42591190338135	743.982177734375	1422.33984375	105.4215393066406	1388.369262695312	1034.930541992188	112.8498611450195	1324.955078125	971.4165649414062	75.06939697265625	1068.046142578125	913.3667602539062	110.7463684082031	1047.2001953125	1000.798950195312	-102.4666213989258	901.799072265625	973.0676879882812	-80.97261047363281	880.90478515625	902.7891235351562	30.81386947631836	1011.830444335938	902.6593627929688	-163.1833190917969	739.830810546875	966.3958129882812	-160.8266448974609	812.5430908203125	957.8024291992188	-116.2420501708984	799.306640625	903.0372314453125	155.2915649414062	1583.93505859375	1116.05078125	-30.62092018127441	1593.59033203125	1187.361450195312	25.62094497680664	1585.130859375	1078.468505859375	95.70969390869141	1592.233032226562	1265.288940429688	133.6829681396484	963.9794311523438	1358.24560546875	107.1203918457031	946.1124877929688	999.71142578125	-18.44808959960938	960.5211181640625	1067.49951171875	7.357343196868896	963.5256958007812	1332.120849609375	71.04558563232422	466.360595703125	1334.886474609375	84.24137878417969	608.6622924804688	1349.229858398438	218.81591796875	37.9859504699707	1295.624877929688	141.2973022460938	238.9875335693359	1326.356323242188	5.580202579498291	53.74150848388672	1229.071533203125	84.02906799316406	48.74008178710938	1199.613403320312	92.34346771240234	44.084228515625	1306.165893554688	256.749267578125	34.77888870239258	1239.805053710938	-60.73503494262695	479.4815979003906	1058.543334960938	-15.40474224090576	730.5510864257812	1022.377014160156	145.1485290527344	102.4937744140625	1048.911010742188	-26.16732597351074	356.896484375	1061.999633789062	-10.99306964874268	43.66131973266602	1121.472045898438	60.46641159057617	59.3463249206543	1148.380981445312	69.81228637695312	64.66831207275391	1047.769653320312	221.6696929931641	112.9802551269531	1098.572998046875	nan	nan	nan	nan	nan	nan	
82	0.8100000000000001	198.3723297119141	973.1820678710938	1108.801391601562	208.7953338623047	974.4702758789062	1240.948974609375	205.2767333984375	1047.20751953125	1174.819702148438	-42.40547561645508	1205.26416015625	1186.198364257812	211.9243774414062	1153.454345703125	1180.57080078125	171.6691589355469	1400.549926757812	1191.56494140625	13.17299461364746	1323.551391601562	1187.50537109375	208.8310089111328	1257.08447265625	1115.807006835938	186.6747741699219	1358.67138671875	1293.926635742188	100.5085754394531	1375.75146484375	1345.539306640625	119.406364440918	1259.438598632812	1417.257934570312	97.46887969970703	1061.622436523438	1443.588256835938	152.8953857421875	1040.210693359375	1382.937622070312	6.882956504821777	845.5479125976562	1403.755249023438	63.94767379760742	832.5714721679688	1461.881469726562	82.27562713623047	957.8091430664062	1452.307495117188	26.5888557434082	661.85791015625	1403.0908203125	56.78164672851562	747.651611328125	1454.017822265625	-0.8715852499008179	745.1587524414062	1422.781494140625	105.6213912963867	1388.319946289062	1035.290649414062	115.1748733520508	1324.872680664062	972.1439819335938	80.967529296875	1067.694580078125	913.3124389648438	113.8970718383789	1047.158447265625	1001.89501953125	-97.92088317871094	901.24365234375	967.5453491210938	-74.03056335449219	879.9379272460938	898.2732543945312	37.28362655639648	1011.273742675781	901.3497314453125	-158.8354797363281	739.1090698242188	959.278564453125	-156.1097717285156	812.0460205078125	950.82568359375	-109.6546020507812	798.4269409179688	897.6216430664062	151.8961029052734	1584.168701171875	1116.605590820312	-34.54720687866211	1593.730224609375	1186.507202148438	22.56672477722168	1585.4296875	1078.033325195312	91.18055725097656	1592.278198242188	1265.39501953125	128.2348327636719	964.07470703125	1359.313232421875	108.1549301147461	946.4736328125	1000.419799804688	-18.51395606994629	960.8198852539062	1065.80908203125	1.491809844970703	963.9485473632812	1331.661987304688	70.02774047851562	466.2740173339844	1335.26220703125	81.67119598388672	608.6456909179688	1349.542602539062	218.7998962402344	37.84612274169922	1295.81005859375	140.8330078125	238.9214935302734	1326.70458984375	5.636473655700684	53.59504318237305	1228.377563476562	84.28168487548828	48.85803985595703	1199.3525390625	92.27609252929688	44.13381958007812	1306.075927734375	256.7609558105469	34.68790435791016	1240.125732421875	-70.29843902587891	482.9965515136719	1058.1806640625	-18.16666030883789	732.4990234375	1020.910949707031	138.3770294189453	107.2643585205078	1050.482788085938	-35.62310028076172	360.3843994140625	1062.389892578125	-16.62934303283691	45.743408203125	1122.83349609375	54.3837776184082	62.70281600952148	1149.873046875	63.7484245300293	67.87197113037109	1049.147705078125	214.5892639160156	119.1286010742188	1100.16259765625	nan	nan	nan	nan	nan	nan	
83	0.8200000000000001	197.0873565673828	973.3914184570312	1111.074096679688	205.2346343994141	974.7271118164062	1243.333740234375	203.3477172851562	1047.6630859375	1177.499267578125	-45.59880828857422	1205.213012695312	1183.060791015625	209.9051971435547	1154.145141601562	1183.639038085938	167.7189025878906	1401.058227539062	1193.424438476562	9.327420234680176	1323.76904296875	1185.578735351562	207.3755798339844	1257.691040039062	1118.9375	180.3249206542969	1359.399291992188	1296.20556640625	92.92034149169922	1376.278198242188	1345.570922851562	110.0353546142578	1260.035522460938	1417.938598632812	87.56198883056641	1062.3037109375	1444.26123046875	144.4570922851562	1040.743530273438	1384.978759765625	-3.765720129013062	846.822265625	1403.140502929688	52.29140853881836	833.543701171875	1462.153930664062	71.69849395751953	958.513671875	1452.769165039062	13.10080146789551	662.8287353515625	1404.455932617188	44.42379760742188	748.934326171875	1454.90478515625	-12.72983741760254	746.7391357421875	1422.91796875	105.6729507446289	1388.299682617188	1035.577514648438	117.3203659057617	1324.857299804688	972.8950805664062	86.90628814697266	1067.408935546875	913.4385986328125	116.9725570678711	1047.197143554688	1003.109008789062	-93.00177001953125	900.4754028320312	961.9917602539062	-66.70194244384766	878.8362426757812	893.8314208984375	43.89065933227539	1010.730224609375	900.1946411132812	-153.8662261962891	738.156494140625	952.1884155273438	-150.8072967529297	811.2236938476562	943.7572021484375	-102.4993209838867	797.3536376953125	892.2608032226562	148.2655181884766	1584.58642578125	1116.977294921875	-38.64405059814453	1593.844360351562	1185.627319335938	19.24340057373047	1585.783569335938	1077.525634765625	86.55751037597656	1592.402709960938	1265.3759765625	122.7533187866211	964.1520385742188	1360.307983398438	108.6809616088867	947.1444702148438	1001.144958496094	-18.99972534179688	961.2937622070312	1064.314575195312	-3.696274518966675	963.9130859375	1330.897583007812	69.05848693847656	466.2162170410156	1335.5234375	79.14608764648438	608.61181640625	1349.771728515625	218.7944793701172	37.69765853881836	1296.00341796875	140.3853759765625	238.8808898925781	1327.034301757812	5.713479995727539	53.45310211181641	1227.613159179688	84.58566284179688	49.00424575805664	1199.067626953125	92.21649169921875	44.22873306274414	1305.9775390625	256.7914123535156	34.59458160400391	1240.452758789062	-79.34284210205078	486.5726318359375	1057.481201171875	-20.98337364196777	734.6094360351562	1019.351196289062	130.5928344726562	111.3087310791016	1052.471801757812	-44.95287322998047	363.8135070800781	1062.553466796875	-23.90528869628906	48.287109375	1124.480224609375	46.77850723266602	66.21858978271484	1151.673583984375	56.39174270629883	70.88945770263672	1050.898071289062	206.4599456787109	124.1348571777344	1102.2314453125	nan	nan	nan	nan	nan	nan	
84	0.8300000000000001	195.3600158691406	973.8538818359375	1113.2099609375	201.4049224853516	975.09912109375	1245.540893554688	200.7689056396484	1048.133911132812	1180.054809570312	-48.85836410522461	1205.2919921875	1180.021362304688	207.6380767822266	1154.768310546875	1186.515869140625	163.6384887695312	1401.584106445312	1195.078979492188	5.410438060760498	1324.090942382812	1183.614013671875	205.7004089355469	1258.280883789062	1121.897583007812	173.9136352539062	1360.21044921875	1298.218994140625	85.38347625732422	1376.977905273438	1345.383666992188	100.7727508544922	1260.821044921875	1418.358032226562	77.65688323974609	1063.204223632812	1444.668579101562	135.8728790283203	1041.43896484375	1386.710693359375	-14.85915088653564	848.5153198242188	1402.28662109375	40.19416046142578	834.7955932617188	1462.147338867188	60.94508361816406	959.4478149414062	1452.980224609375	-1.008306741714478	664.3030395507812	1405.389282226562	31.4945240020752	750.5142822265625	1455.452880859375	-25.17308807373047	748.7304077148438	1422.708862304688	105.5590133666992	1388.279541015625	1035.798095703125	119.2582092285156	1324.877075195312	973.6795043945312	92.827392578125	1067.170532226562	913.7301635742188	119.9504928588867	1047.286010742188	1004.416259765625	-87.73240661621094	899.4500732421875	956.4666748046875	-59.02417755126953	877.5877075195312	889.4932861328125	50.58222961425781	1010.181884765625	899.1886596679688	-148.2386322021484	736.9425659179688	945.1411743164062	-144.8773498535156	810.029296875	936.6109619140625	-94.791259765625	796.0667114257812	886.9819946289062	144.4263458251953	1585.167846679688	1117.179321289062	-42.90695953369141	1593.907104492188	1184.699829101562	15.67554950714111	1586.161376953125	1076.935791015625	81.83377838134766	1592.595947265625	1265.228759765625	117.2531356811523	964.1921997070312	1361.21240234375	108.6745834350586	948.0830688476562	1001.853271484375	-19.93654251098633	961.9053344726562	1063.010009765625	-8.118830680847168	963.3556518554688	1329.711181640625	68.11559295654297	466.1643981933594	1335.663696289062	76.67382049560547	608.5565185546875	1349.938598632812	218.7996826171875	37.53950881958008	1296.211669921875	139.968017578125	238.8646545410156	1327.35400390625	5.824417114257812	53.33256149291992	1226.857666015625	84.92177581787109	49.17241668701172	1198.78076171875	92.16412353515625	44.35147857666016	1305.88330078125	256.8523864746094	34.5123405456543	1240.781127929688	-87.81269836425781	490.1501770019531	1056.451538085938	-23.86102867126465	736.8521728515625	1017.7724609375	121.7541198730469	114.4846267700195	1054.823852539062	-54.08761978149414	367.1215209960938	1062.412109375	-32.87084579467773	51.11698532104492	1126.255004882812	37.5833625793457	69.6639404296875	1153.671020507812	47.70579528808594	73.55876922607422	1052.929565429688	197.2232055664062	127.8638687133789	1104.799072265625	nan	nan	nan	nan	nan	nan	
